<?xml version="1.0" standalone="no"?>
<!DOCTYPE svg PUBLIC "-//W3C//DTD SVG 20010904//EN"
 "http://www.w3.org/TR/2001/REC-SVG-20010904/DTD/svg10.dtd">
<svg version="1.0" xmlns="http://www.w3.org/2000/svg"
 width="300.000000pt" height="300.000000pt" viewBox="0 0 300.000000 300.000000"
 preserveAspectRatio="xMidYMid meet">
<metadata>
Created by potrace 1.11, written by Peter Selinger 2001-2013
</metadata>
<g transform="translate(0.000000,300.000000) scale(0.100000,-0.100000)"
fill="#000000" stroke="none">
<path d="M1300 2971 c-240 -43 -433 -117 -614 -234 -170 -111 -282 -220 -399
-386 -109 -155 -177 -308 -233 -526 -27 -104 -29 -121 -29 -325 0 -204 2 -221
29 -325 56 -218 124 -371 233 -526 224 -320 529 -514 958 -610 82 -19 428 -19
510 0 293 66 522 175 719 343 96 83 158 152 239 267 109 155 177 308 233 526
27 104 29 121 29 325 0 204 -2 221 -29 325 -56 218 -124 371 -233 526 -117
166 -229 275 -399 386 -156 101 -301 160 -549 223 -58 15 -397 22 -465 11z
m480 -115 c232 -59 365 -118 541 -242 133 -93 288 -265 366 -404 11 -19 34
-60 51 -90 39 -69 96 -243 122 -371 15 -72 20 -137 20 -249 0 -112 -5 -177
-20 -249 -26 -128 -83 -302 -122 -371 -17 -30 -40 -71 -51 -90 -152 -271 -449
-508 -757 -603 -187 -58 -212 -62 -430 -62 -218 0 -243 4 -430 62 -308 95
-605 332 -757 603 -11 19 -34 60 -51 90 -39 69 -96 243 -122 371 -28 135 -28
363 0 498 26 128 83 302 122 371 17 30 40 71 51 90 104 186 293 372 497 489
144 83 303 138 510 175 61 11 397 -3 460 -18z"/>
<path d="M2060 2633 c-187 -20 -467 -99 -636 -178 -448 -213 -789 -534 -1014
-958 -67 -126 -77 -195 -37 -274 46 -89 152 -153 256 -153 57 0 80 20 110 97
136 347 503 739 860 917 40 21 75 35 78 32 3 -3 -27 -60 -67 -128 -292 -492
-473 -876 -547 -1164 -24 -94 -28 -129 -28 -249 l0 -140 34 -63 c39 -72 81
-111 160 -148 49 -24 64 -26 140 -22 95 5 129 18 192 75 51 46 75 93 89 175
14 78 3 107 -57 158 -39 32 -62 35 -132 14 -23 -7 -23 -6 -16 37 4 24 25 84
46 133 22 49 39 94 39 98 0 18 203 423 223 445 11 12 37 55 58 95 75 143 91
170 166 296 89 148 252 403 330 516 30 44 57 92 60 108 3 16 10 31 14 34 11 7
12 39 1 62 -5 9 -19 39 -32 65 -26 54 -82 98 -145 116 -39 11 -74 12 -145 4z
m197 -79 c48 -39 73 -89 73 -145 0 -40 -8 -58 -55 -128 -146 -214 -460 -722
-519 -839 -15 -29 -47 -82 -71 -118 -25 -36 -45 -69 -45 -74 0 -5 -32 -76 -71
-157 -129 -268 -158 -344 -180 -468 -16 -92 -8 -97 81 -56 113 52 147 30 137
-87 -12 -120 -67 -190 -179 -228 -96 -32 -198 -3 -275 78 -169 176 -72 599
292 1273 92 170 231 406 318 543 26 39 43 72 37 72 -46 0 -262 -107 -387 -192
-306 -206 -641 -603 -713 -845 -21 -68 -40 -79 -107 -65 -124 26 -198 101
-197 201 0 62 31 132 130 292 246 397 669 733 1102 875 196 64 403 105 515
100 68 -2 81 -6 114 -32z"/>
<path d="M2005 2533 c-16 -2 -81 -15 -143 -29 -586 -130 -1086 -511 -1371
-1046 -64 -120 -68 -168 -19 -224 58 -66 164 -98 176 -52 12 46 102 217 157
298 163 239 397 470 625 615 136 87 338 175 439 191 l41 7 -103 -164 c-365
-575 -603 -1069 -668 -1383 -27 -131 -23 -271 9 -332 39 -76 118 -127 197
-127 127 1 214 86 215 211 0 63 -6 64 -90 22 -33 -16 -68 -30 -78 -30 -75 0
-68 144 18 364 43 109 167 365 247 511 129 233 374 633 537 875 78 117 90 140
90 176 -1 46 -19 78 -61 105 -22 15 -45 19 -108 17 -44 0 -93 -3 -110 -5z"/>
</g>
</svg>
